<svg id="Camada_1" data-name="Camada 1" xmlns="http://www.w3.org/2000/svg" viewBox="0 0 180.29 180.29"><defs><style>.cls-1{fill:#010101;}</style></defs><path class="cls-1" d="M17,180.29a16.46,16.46,0,0,1-12.1-4.91A16.47,16.47,0,0,1,0,163.28V17A16.46,16.46,0,0,1,4.91,4.91,16.46,16.46,0,0,1,17,0H163.28a16.47,16.47,0,0,1,12.1,4.91A16.46,16.46,0,0,1,180.29,17V163.28a16.77,16.77,0,0,1-17,17Zm.07-7.58H52.57V114.65H46.78a8.92,8.92,0,0,1-9.06-9.06v-98H17.08a9.17,9.17,0,0,0-9.51,9.51V163.21a9.16,9.16,0,0,0,9.51,9.5Zm110.78,0h35.35a9.14,9.14,0,0,0,9.5-9.5V17.08a9.16,9.16,0,0,0-9.5-9.51H142.72v98a8.69,8.69,0,0,1-2.66,6.45,9,9,0,0,1-6.55,2.61h-5.65Zm-67.71,0h60.14V114.65H114.5a8.92,8.92,0,0,1-9.06-9.06v-98H75v98A8.69,8.69,0,0,1,72.34,112a9,9,0,0,1-6.55,2.61H60.15Z"/></svg>