<svg xmlns="http://www.w3.org/2000/svg" height="24" viewBox="0 -960 960 960" width="24"><path d="M233.764-176.5q-24.202 0-40.733-16.531-16.531-16.531-16.531-40.733v-492.472q0-24.202 16.531-40.733 16.531-16.531 40.733-16.531h492.472q24.202 0 40.733 16.531 16.531 16.531 16.531 40.733v492.472q0 24.202-16.531 40.733-16.531 16.531-40.733 16.531H233.764ZM234-202h119.5v-195.5H334q-12.925 0-21.712-8.788Q303.5-415.075 303.5-428v-330H234q-14 0-23 9t-9 23v492q0 14 9 23t23 9Zm373 0h119q14 0 23-9t9-23v-492q0-14-9-23t-23-9h-69v330q0 12.925-8.931 21.712Q639.138-397.5 626-397.5h-19V-202Zm-228 0h202.5v-195.5H562q-12.925 0-21.713-8.788Q531.5-415.075 531.5-428v-330H429v330q0 12.925-8.931 21.712Q411.138-397.5 398-397.5h-19V-202Z"/></svg>